<?xml version="1.0" encoding="UTF-8"?>
<!DOCTYPE svg PUBLIC "-//W3C//DTD SVG 1.1//EN" "http://www.w3.org/Graphics/SVG/1.1/DTD/svg11.dtd">
<svg xmlns="http://www.w3.org/2000/svg" version="1.1" width="500px" height="500px" style="shape-rendering:geometricPrecision; text-rendering:geometricPrecision; image-rendering:optimizeQuality; fill-rule:evenodd; clip-rule:evenodd" xmlns:xlink="http://www.w3.org/1999/xlink">
<g><path style="opacity:0.968" fill="#020202" d="M 458.5,141.5 C 458.5,149.167 458.5,156.833 458.5,164.5C 440.833,164.5 423.167,164.5 405.5,164.5C 402.434,165.729 399.767,167.563 397.5,170C 391.922,175.406 386.922,181.239 382.5,187.5C 381.279,188.028 380.113,188.695 379,189.5C 373.297,195.7 367.797,202.033 362.5,208.5C 357.833,211.167 354.167,214.833 351.5,219.5C 348.167,220.833 345.833,223.167 344.5,226.5C 343.55,229.115 341.883,231.115 339.5,232.5C 332.864,237.469 326.864,243.136 321.5,249.5C 320.218,250.708 320.218,252.042 321.5,253.5C 325.298,257.477 329.298,261.144 333.5,264.5C 339.137,271.804 345.47,278.471 352.5,284.5C 359.803,285.497 367.137,285.831 374.5,285.5C 374.5,292.833 374.5,300.167 374.5,307.5C 365.5,307.5 356.5,307.5 347.5,307.5C 345.151,305.659 342.485,304.326 339.5,303.5C 338.928,301.745 338.094,300.078 337,298.5C 326.093,288.486 315.593,278.153 305.5,267.5C 304.578,265.184 302.911,263.517 300.5,262.5C 296.03,261.514 291.363,261.181 286.5,261.5C 286.5,270.5 286.5,279.5 286.5,288.5C 286.5,294.833 286.5,301.167 286.5,307.5C 256.167,307.5 225.833,307.5 195.5,307.5C 193.426,305.264 191.092,304.597 188.5,305.5C 188.167,305.5 187.833,305.5 187.5,305.5C 186.545,302.545 184.545,300.545 181.5,299.5C 180.921,296.669 179.588,294.336 177.5,292.5C 177.5,292.167 177.5,291.833 177.5,291.5C 177.5,282.167 177.5,272.833 177.5,263.5C 184.313,262.509 191.313,262.175 198.5,262.5C 198.5,270.167 198.5,277.833 198.5,285.5C 220.673,285.831 242.673,285.497 264.5,284.5C 265.833,262.167 265.833,239.833 264.5,217.5C 250.167,217.5 235.833,217.5 221.5,217.5C 221.5,209.833 221.5,202.167 221.5,194.5C 243.167,194.5 264.833,194.5 286.5,194.5C 285.85,209.871 286.516,224.871 288.5,239.5C 292.167,239.5 295.833,239.5 299.5,239.5C 301.5,239.5 302.5,238.5 302.5,236.5C 307.167,233.833 310.833,230.167 313.5,225.5C 317.606,222.571 321.606,219.404 325.5,216C 326.252,215.329 326.586,214.496 326.5,213.5C 327.11,212.609 327.443,211.609 327.5,210.5C 329.71,210.106 331.043,208.773 331.5,206.5C 332.239,206.631 332.906,206.464 333.5,206C 335.288,203.816 336.954,201.649 338.5,199.5C 339.239,199.631 339.906,199.464 340.5,199C 343.861,195.757 346.861,192.257 349.5,188.5C 350.239,188.631 350.906,188.464 351.5,188C 354.853,184.788 357.853,181.288 360.5,177.5C 361.239,177.631 361.906,177.464 362.5,177C 365.853,173.788 368.853,170.288 371.5,166.5C 371.733,164.938 372.4,163.605 373.5,162.5C 374.552,162.649 375.552,162.483 376.5,162C 382.34,155.659 388.007,149.159 393.5,142.5C 415.091,141.512 436.758,141.178 458.5,141.5 Z"/></g>
<g><path style="opacity:0.6" fill="#a4a4a4" d="M 458.5,141.5 C 459.823,144.938 460.49,148.771 460.5,153C 460.49,157.229 459.823,161.062 458.5,164.5C 458.5,156.833 458.5,149.167 458.5,141.5 Z"/></g>
<g><path style="opacity:0.451" fill="#bcbcbc" d="M 393.5,142.5 C 388.007,149.159 382.34,155.659 376.5,162C 375.552,162.483 374.552,162.649 373.5,162.5C 374.693,160.946 375.86,159.279 377,157.5C 382.28,152.135 387.78,147.135 393.5,142.5 Z"/></g>
<g><path style="opacity:0.322" fill="#4d4d4d" d="M 371.5,166.5 C 368.853,170.288 365.853,173.788 362.5,177C 361.906,177.464 361.239,177.631 360.5,177.5C 363.167,172.833 366.833,169.167 371.5,166.5 Z"/></g>
<g><path style="opacity:0.147" fill="#787878" d="M 360.5,177.5 C 357.853,181.288 354.853,184.788 351.5,188C 350.906,188.464 350.239,188.631 349.5,188.5C 351.066,185.588 353.066,182.921 355.5,180.5C 356.94,179.048 358.606,178.048 360.5,177.5 Z"/></g>
<g><path style="opacity:0.179" fill="#505050" d="M 405.5,164.5 C 405.631,165.239 405.464,165.906 405,166.5C 397.934,173.005 391.1,179.672 384.5,186.5C 383.833,186.833 383.167,187.167 382.5,187.5C 386.922,181.239 391.922,175.406 397.5,170C 399.767,167.563 402.434,165.729 405.5,164.5 Z"/></g>
<g><path style="opacity:0.224" fill="#afafaf" d="M 384.5,186.5 C 384.631,187.239 384.464,187.906 384,188.5C 377.028,195.52 369.862,202.186 362.5,208.5C 367.797,202.033 373.297,195.7 379,189.5C 380.113,188.695 381.279,188.028 382.5,187.5C 383.167,187.167 383.833,186.833 384.5,186.5 Z"/></g>
<g><path style="opacity:0.305" fill="#909190" d="M 221.5,194.5 C 221.5,202.167 221.5,209.833 221.5,217.5C 220.833,217.5 220.167,217.5 219.5,217.5C 219.334,210.159 219.5,202.826 220,195.5C 220.383,194.944 220.883,194.611 221.5,194.5 Z"/></g>
<g><path style="opacity:0.314" fill="#a2a2a2" d="M 349.5,188.5 C 346.861,192.257 343.861,195.757 340.5,199C 339.906,199.464 339.239,199.631 338.5,199.5C 340.066,196.588 342.066,193.921 344.5,191.5C 345.94,190.048 347.606,189.048 349.5,188.5 Z"/></g>
<g><path style="opacity:0.959" fill="#020202" d="M 165.5,197.5 C 165.169,228.338 165.502,259.005 166.5,289.5C 166.5,290.167 166.5,290.833 166.5,291.5C 165.504,291.414 164.671,291.748 164,292.5C 163.439,295.279 162.606,297.946 161.5,300.5C 161.5,300.833 161.5,301.167 161.5,301.5C 158.926,303.798 155.926,305.632 152.5,307C 151.748,307.671 151.414,308.504 151.5,309.5C 151.167,309.5 150.833,309.5 150.5,309.5C 148.545,308.07 146.879,308.403 145.5,310.5C 122.167,310.5 98.8333,310.5 75.5,310.5C 71.4083,309.097 67.4083,307.097 63.5,304.5C 62.391,304.443 61.391,304.11 60.5,303.5C 60.5,302.167 59.8333,301.5 58.5,301.5C 58.1667,300.833 57.8333,300.167 57.5,299.5C 57.6138,296.784 56.6138,294.784 54.5,293.5C 54.5,292.167 54.5,290.833 54.5,289.5C 55.492,282.018 55.8254,274.352 55.5,266.5C 62.5,266.5 69.5,266.5 76.5,266.5C 76.1755,273.687 76.5088,280.687 77.5,287.5C 99.5,287.5 121.5,287.5 143.5,287.5C 144.833,265.167 144.833,242.833 143.5,220.5C 128.5,220.5 113.5,220.5 98.5,220.5C 98.5,212.833 98.5,205.167 98.5,197.5C 120.833,197.5 143.167,197.5 165.5,197.5 Z"/></g>
<g><path style="opacity:0.592" fill="#424242" d="M 286.5,194.5 C 287.117,194.611 287.617,194.944 288,195.5C 288.5,210.163 288.667,224.83 288.5,239.5C 286.516,224.871 285.85,209.871 286.5,194.5 Z"/></g>
<g><path style="opacity:0.553" fill="#d0d0d0" d="M 165.5,197.5 C 166.833,212.485 167.499,227.818 167.5,243.5C 167.5,259.004 167.167,274.337 166.5,289.5C 165.502,259.005 165.169,228.338 165.5,197.5 Z"/></g>
<g><path style="opacity:0.104" fill="#bcbcbc" d="M 338.5,199.5 C 336.954,201.649 335.288,203.816 333.5,206C 332.906,206.464 332.239,206.631 331.5,206.5C 332.5,202.833 334.833,200.5 338.5,199.5 Z"/></g>
<g><path style="opacity:0.314" fill="#c4c4c4" d="M 331.5,206.5 C 331.043,208.773 329.71,210.106 327.5,210.5C 327.833,208.167 329.167,206.833 331.5,206.5 Z"/></g>
<g><path style="opacity:0.224" fill="#7e7e7e" d="M 362.5,208.5 C 362.631,209.239 362.464,209.906 362,210.5C 358.717,213.871 355.217,216.871 351.5,219.5C 354.167,214.833 357.833,211.167 362.5,208.5 Z"/></g>
<g><path style="opacity:0.635" fill="#c1c1c1" d="M 327.5,210.5 C 327.443,211.609 327.11,212.609 326.5,213.5C 325.833,213.5 325.167,213.5 324.5,213.5C 324.5,211.5 325.5,210.5 327.5,210.5 Z"/></g>
<g><path style="opacity:0.671" fill="#7f7f7f" d="M 221.5,217.5 C 235.833,217.5 250.167,217.5 264.5,217.5C 264.672,218.492 264.338,219.158 263.5,219.5C 249.5,218.833 235.5,218.167 221.5,217.5 Z"/></g>
<g><path style="opacity:0.302" fill="#d9d9d9" d="M 219.5,217.5 C 220.167,217.5 220.833,217.5 221.5,217.5C 235.5,218.167 249.5,218.833 263.5,219.5C 248.462,220.15 233.795,219.483 219.5,217.5 Z"/></g>
<g><path style="opacity:0.307" fill="#464646" d="M 264.5,217.5 C 265.833,239.833 265.833,262.167 264.5,284.5C 264.5,283.833 264.167,283.5 263.5,283.5C 263.5,262.167 263.5,240.833 263.5,219.5C 264.338,219.158 264.672,218.492 264.5,217.5 Z"/></g>
<g><path style="opacity:0.549" fill="#3c3c3c" d="M 324.5,213.5 C 325.167,213.5 325.833,213.5 326.5,213.5C 326.586,214.496 326.252,215.329 325.5,216C 321.606,219.404 317.606,222.571 313.5,225.5C 316.464,220.869 320.131,216.869 324.5,213.5 Z"/></g>
<g><path style="opacity:0.201" fill="#cbcbcb" d="M 98.5,220.5 C 113.5,220.5 128.5,220.5 143.5,220.5C 143.672,221.492 143.338,222.158 142.5,222.5C 127.462,223.15 112.795,222.483 98.5,220.5 Z"/></g>
<g><path style="opacity:0.343" fill="#393939" d="M 143.5,220.5 C 144.833,242.833 144.833,265.167 143.5,287.5C 143.167,286.833 142.833,286.167 142.5,285.5C 142.5,264.5 142.5,243.5 142.5,222.5C 143.338,222.158 143.672,221.492 143.5,220.5 Z"/></g>
<g><path style="opacity:0.145" fill="#494949" d="M 351.5,219.5 C 351.631,220.239 351.464,220.906 351,221.5C 348.914,223.437 346.748,225.104 344.5,226.5C 345.833,223.167 348.167,220.833 351.5,219.5 Z"/></g>
<g><path style="opacity:0.549" fill="#686868" d="M 313.5,225.5 C 310.833,230.167 307.167,233.833 302.5,236.5C 302.369,235.761 302.536,235.094 303,234.5C 306.283,231.129 309.783,228.129 313.5,225.5 Z"/></g>
<g><path style="opacity:0.124" fill="#bebebe" d="M 339.5,232.5 C 339.461,233.583 339.127,234.583 338.5,235.5C 333.091,240.849 327.757,246.182 322.5,251.5C 321.662,251.158 321.328,250.492 321.5,249.5C 326.864,243.136 332.864,237.469 339.5,232.5 Z"/></g>
<g><path style="opacity:0.367" fill="#8e8e8e" d="M 302.5,236.5 C 302.5,238.5 301.5,239.5 299.5,239.5C 299.5,237.5 300.5,236.5 302.5,236.5 Z"/></g>
<g><path style="opacity:0.601" fill="#5d5d5d" d="M 300.5,262.5 C 300.5,262.833 300.5,263.167 300.5,263.5C 296.5,263.5 292.5,263.5 288.5,263.5C 288.5,271.167 288.5,278.833 288.5,286.5C 287.833,287.167 287.167,287.833 286.5,288.5C 286.5,279.5 286.5,270.5 286.5,261.5C 291.363,261.181 296.03,261.514 300.5,262.5 Z"/></g>
<g><path style="opacity:0.268" fill="#b0b0b0" d="M 77.5,265.5 C 70.1667,265.5 62.8333,265.5 55.5,265.5C 55.1667,265.5 54.8333,265.5 54.5,265.5C 57.9377,264.177 61.771,263.51 66,263.5C 70.229,263.51 74.0623,264.177 77.5,265.5 Z"/></g>
<g><path style="opacity:0.331" fill="#6f6f6f" d="M 175.5,263.5 C 176.167,263.5 176.833,263.5 177.5,263.5C 177.5,272.833 177.5,282.167 177.5,291.5C 175.528,282.56 174.861,273.227 175.5,263.5 Z"/></g>
<g><path style="opacity:0.173" fill="#a8a8a8" d="M 263.5,283.5 C 264.167,283.5 264.5,283.833 264.5,284.5C 242.673,285.497 220.673,285.831 198.5,285.5C 198.5,277.833 198.5,270.167 198.5,262.5C 191.313,262.175 184.313,262.509 177.5,263.5C 176.833,263.5 176.167,263.5 175.5,263.5C 183.433,261.532 191.766,260.865 200.5,261.5C 200.5,268.833 200.5,276.167 200.5,283.5C 221.5,283.5 242.5,283.5 263.5,283.5 Z"/></g>
<g><path style="opacity:0.117" fill="#474747" d="M 300.5,262.5 C 302.911,263.517 304.578,265.184 305.5,267.5C 304.833,267.5 304.167,267.5 303.5,267.5C 302.211,266.363 301.211,265.03 300.5,263.5C 300.5,263.167 300.5,262.833 300.5,262.5 Z"/></g>
<g><path style="opacity:0.431" fill="#4f4f4f" d="M 321.5,249.5 C 321.328,250.492 321.662,251.158 322.5,251.5C 326.614,255.038 330.281,259.038 333.5,263.5C 333.5,263.833 333.5,264.167 333.5,264.5C 329.298,261.144 325.298,257.477 321.5,253.5C 320.218,252.042 320.218,250.708 321.5,249.5 Z"/></g>
<g><path style="opacity:0.162" fill="#757575" d="M 333.5,263.5 C 335.054,264.693 336.721,265.86 338.5,267C 343.757,272.416 348.757,277.916 353.5,283.5C 360.5,284.167 367.5,284.833 374.5,285.5C 367.137,285.831 359.803,285.497 352.5,284.5C 345.47,278.471 339.137,271.804 333.5,264.5C 333.5,264.167 333.5,263.833 333.5,263.5 Z"/></g>
<g><path style="opacity:0.376" fill="#3c3c3c" d="M 55.5,266.5 C 55.5,266.167 55.5,265.833 55.5,265.5C 62.8333,265.5 70.1667,265.5 77.5,265.5C 77.5,272.167 77.5,278.833 77.5,285.5C 77.5,286.167 77.5,286.833 77.5,287.5C 76.5088,280.687 76.1755,273.687 76.5,266.5C 69.5,266.5 62.5,266.5 55.5,266.5 Z"/></g>
<g><path style="opacity:0.694" fill="#909090" d="M 54.5,265.5 C 54.8333,265.5 55.1667,265.5 55.5,265.5C 55.5,265.833 55.5,266.167 55.5,266.5C 55.8254,274.352 55.492,282.018 54.5,289.5C 53.1667,281.5 53.1667,273.5 54.5,265.5 Z"/></g>
<g><path style="opacity:0.11" fill="#afafaf" d="M 303.5,267.5 C 304.167,267.5 304.833,267.5 305.5,267.5C 315.593,278.153 326.093,288.486 337,298.5C 338.094,300.078 338.928,301.745 339.5,303.5C 337.401,302.139 335.401,300.639 333.5,299C 322.937,288.94 312.937,278.44 303.5,267.5 Z"/></g>
<g><path style="opacity:0.369" fill="#d5d5d5" d="M 353.5,283.5 C 361.573,282.868 369.24,283.535 376.5,285.5C 375.833,285.5 375.167,285.5 374.5,285.5C 367.5,284.833 360.5,284.167 353.5,283.5 Z"/></g>
<g><path style="opacity:0.269" fill="#d8d8d8" d="M 77.5,285.5 C 99.1667,285.5 120.833,285.5 142.5,285.5C 142.833,286.167 143.167,286.833 143.5,287.5C 121.5,287.5 99.5,287.5 77.5,287.5C 77.5,286.833 77.5,286.167 77.5,285.5 Z"/></g>
<g><path style="opacity:0.231" fill="#5e5e5e" d="M 374.5,285.5 C 375.167,285.5 375.833,285.5 376.5,285.5C 377.13,293.243 376.463,300.576 374.5,307.5C 374.5,300.167 374.5,292.833 374.5,285.5 Z"/></g>
<g><path style="opacity:0.199" fill="#acacac" d="M 288.5,286.5 C 289.128,293.913 288.461,300.913 286.5,307.5C 286.5,301.167 286.5,294.833 286.5,288.5C 287.167,287.833 287.833,287.167 288.5,286.5 Z"/></g>
<g><path style="opacity:0.565" fill="#b5b5b5" d="M 54.5,293.5 C 56.6138,294.784 57.6138,296.784 57.5,299.5C 55.3862,298.216 54.3862,296.216 54.5,293.5 Z"/></g>
<g><path style="opacity:0.21" fill="#cccccc" d="M 166.5,293.5 C 166.715,295.179 166.048,296.179 164.5,296.5C 164.285,294.821 164.952,293.821 166.5,293.5 Z"/></g>
<g><path style="opacity:0.541" fill="#656565" d="M 166.5,291.5 C 166.5,292.167 166.5,292.833 166.5,293.5C 164.952,293.821 164.285,294.821 164.5,296.5C 164.912,298.973 163.912,300.306 161.5,300.5C 162.606,297.946 163.439,295.279 164,292.5C 164.671,291.748 165.504,291.414 166.5,291.5 Z"/></g>
<g><path style="opacity:0.234" fill="#a0a0a0" d="M 177.5,292.5 C 179.588,294.336 180.921,296.669 181.5,299.5C 180.504,299.586 179.671,299.252 179,298.5C 178.187,296.564 177.687,294.564 177.5,292.5 Z"/></g>
<g><path style="opacity:0.11" fill="#7d7d7d" d="M 181.5,299.5 C 184.545,300.545 186.545,302.545 187.5,305.5C 184.631,304.393 182.631,302.393 181.5,299.5 Z"/></g>
<g><path style="opacity:0.169" fill="#d2d2d2" d="M 58.5,301.5 C 59.8333,301.5 60.5,302.167 60.5,303.5C 59.1667,303.5 58.5,302.833 58.5,301.5 Z"/></g>
<g><path style="opacity:0.191" fill="#d0d0d0" d="M 60.5,303.5 C 61.391,304.11 62.391,304.443 63.5,304.5C 63.5,305.167 63.5,305.833 63.5,306.5C 61.5,306.5 60.5,305.5 60.5,303.5 Z"/></g>
<g><path style="opacity:0.184" fill="#5b5b5b" d="M 63.5,304.5 C 67.4083,307.097 71.4083,309.097 75.5,310.5C 72.7628,310.599 70.0961,310.265 67.5,309.5C 67.5,308.167 66.8333,307.5 65.5,307.5C 64.8333,307.167 64.1667,306.833 63.5,306.5C 63.5,305.833 63.5,305.167 63.5,304.5 Z"/></g>
<g><path style="opacity:0.686" fill="#797979" d="M 195.5,307.5 C 192.772,307.829 190.438,307.163 188.5,305.5C 191.092,304.597 193.426,305.264 195.5,307.5 Z"/></g>
<g><path style="opacity:0.675" fill="#7c7c7c" d="M 339.5,303.5 C 342.485,304.326 345.151,305.659 347.5,307.5C 345.073,307.477 342.74,306.977 340.5,306C 339.748,305.329 339.414,304.496 339.5,303.5 Z"/></g>
<g><path style="opacity:0.216" fill="#979797" d="M 161.5,301.5 C 161.249,303.17 160.582,304.67 159.5,306C 156.91,307.445 154.243,308.612 151.5,309.5C 151.414,308.504 151.748,307.671 152.5,307C 155.926,305.632 158.926,303.798 161.5,301.5 Z"/></g>
<g><path style="opacity:0.187" fill="#e3e3e3" d="M 65.5,307.5 C 66.8333,307.5 67.5,308.167 67.5,309.5C 66.1667,309.5 65.5,308.833 65.5,307.5 Z"/></g>
<g><path style="opacity:0.235" fill="#757575" d="M 150.5,309.5 C 149.081,310.451 147.415,310.784 145.5,310.5C 146.879,308.403 148.545,308.07 150.5,309.5 Z"/></g>
<g><path style="opacity:0.257" fill="#636363" d="M 97.5,318.5 C 96.8166,320.176 95.4832,320.843 93.5,320.5C 94.1834,318.824 95.5168,318.157 97.5,318.5 Z"/></g>
<g><path style="opacity:0.595" fill="#c5c5c5" d="M 109.5,318.5 C 105.833,319.833 102.167,319.833 98.5,318.5C 102.167,317.167 105.833,317.167 109.5,318.5 Z"/></g>
<g><path style="opacity:0.114" fill="#8b8b8b" d="M 111.5,318.5 C 113.483,318.157 114.817,318.824 115.5,320.5C 113.517,320.843 112.183,320.176 111.5,318.5 Z"/></g>
<g><path style="opacity:0.123" fill="#a0a0a0" d="M 248.5,318.5 C 248.179,320.048 247.179,320.715 245.5,320.5C 245.821,318.952 246.821,318.285 248.5,318.5 Z"/></g>
<g><path style="opacity:0.595" fill="#c4c4c4" d="M 262.5,318.5 C 258.833,319.833 255.167,319.833 251.5,318.5C 255.167,317.167 258.833,317.167 262.5,318.5 Z"/></g>
<g><path style="opacity:0.257" fill="#888888" d="M 264.5,318.5 C 266.179,318.285 267.179,318.952 267.5,320.5C 265.821,320.715 264.821,320.048 264.5,318.5 Z"/></g>
<g><path style="opacity:0.986" fill="#020202" d="M 97.5,318.5 C 97.8333,318.5 98.1667,318.5 98.5,318.5C 102.167,319.833 105.833,319.833 109.5,318.5C 110.167,318.5 110.833,318.5 111.5,318.5C 112.183,320.176 113.517,320.843 115.5,320.5C 115.833,320.5 116.167,320.5 116.5,320.5C 116.369,321.376 116.702,322.043 117.5,322.5C 118.687,323.653 119.687,323.653 120.5,322.5C 120.833,322.5 121.167,322.5 121.5,322.5C 121.351,323.552 121.517,324.552 122,325.5C 124.184,327.288 126.351,328.954 128.5,330.5C 128.937,333.225 130.27,335.225 132.5,336.5C 132.285,338.179 132.952,339.179 134.5,339.5C 134.5,340.5 134.5,341.5 134.5,342.5C 133.167,346.833 133.167,351.167 134.5,355.5C 134.5,356.167 134.5,356.833 134.5,357.5C 132.824,358.183 132.157,359.517 132.5,361.5C 130.466,362.591 129.132,364.257 128.5,366.5C 125.495,370.188 121.828,373.188 117.5,375.5C 116.614,376.325 116.281,377.325 116.5,378.5C 116.167,378.5 115.833,378.5 115.5,378.5C 115.083,377.876 114.416,377.543 113.5,377.5C 112.287,377.747 111.62,378.414 111.5,379.5C 106.167,379.5 100.833,379.5 95.5,379.5C 95.2893,377.576 94.6226,377.243 93.5,378.5C 93.1667,378.5 92.8333,378.5 92.5,378.5C 92.5,377.167 91.8333,376.5 90.5,376.5C 90.1667,376.5 89.8333,376.5 89.5,376.5C 86.8151,372.817 83.4818,369.817 79.5,367.5C 78.5,367.167 77.8333,366.5 77.5,365.5C 78.7574,364.377 78.4241,363.711 76.5,363.5C 76.5,363.167 76.5,362.833 76.5,362.5C 77.7574,361.377 77.4241,360.711 75.5,360.5C 75.8432,358.517 75.1765,357.183 73.5,356.5C 73.5,351.833 73.5,347.167 73.5,342.5C 74.3764,342.631 75.0431,342.298 75.5,341.5C 77.4532,336.574 79.7865,331.908 82.5,327.5C 84.9572,325.099 87.9572,323.432 91.5,322.5C 92.2975,322.043 92.6309,321.376 92.5,320.5C 92.8333,320.5 93.1667,320.5 93.5,320.5C 95.4832,320.843 96.8166,320.176 97.5,318.5 Z"/></g>
<g><path style="opacity:0.983" fill="#020202" d="M 248.5,318.5 C 249.5,318.5 250.5,318.5 251.5,318.5C 255.167,319.833 258.833,319.833 262.5,318.5C 263.167,318.5 263.833,318.5 264.5,318.5C 264.821,320.048 265.821,320.715 267.5,320.5C 267.833,320.5 268.167,320.5 268.5,320.5C 268.369,321.376 268.702,322.043 269.5,322.5C 272.769,323.789 275.769,325.456 278.5,327.5C 281.582,331.715 283.915,336.382 285.5,341.5C 285.957,342.298 286.624,342.631 287.5,342.5C 287.5,343.833 287.5,345.167 287.5,346.5C 286.167,348.167 286.167,349.833 287.5,351.5C 287.5,353.167 287.5,354.833 287.5,356.5C 286.5,356.5 285.5,356.5 284.5,356.5C 284.046,358.741 284.046,360.741 284.5,362.5C 284.5,362.833 284.5,363.167 284.5,363.5C 280.36,368.061 276.027,372.395 271.5,376.5C 271.167,376.5 270.833,376.5 270.5,376.5C 269.167,376.5 268.5,377.167 268.5,378.5C 268.167,378.5 267.833,378.5 267.5,378.5C 266.377,377.243 265.711,377.576 265.5,379.5C 260.167,379.5 254.833,379.5 249.5,379.5C 248.105,377.621 246.105,376.621 243.5,376.5C 243.167,376.5 242.833,376.5 242.5,376.5C 239.188,373.188 235.854,369.854 232.5,366.5C 231.833,366.5 231.167,366.5 230.5,366.5C 229.766,365.292 229.433,363.959 229.5,362.5C 229.379,359.895 228.379,357.895 226.5,356.5C 226.5,354.5 226.5,352.5 226.5,350.5C 227.625,349.652 227.625,348.652 226.5,347.5C 226.5,345.833 226.5,344.167 226.5,342.5C 227.75,342.423 228.583,341.756 229,340.5C 229.494,338.866 229.66,337.199 229.5,335.5C 229.5,335.167 229.5,334.833 229.5,334.5C 232.448,331.388 235.615,328.388 239,325.5C 239.483,324.552 239.649,323.552 239.5,322.5C 241.421,321.637 243.421,320.971 245.5,320.5C 247.179,320.715 248.179,320.048 248.5,318.5 Z"/></g>
<g><path style="opacity:0.243" fill="#898989" d="M 116.5,320.5 C 118.38,320.229 119.713,320.896 120.5,322.5C 119.687,323.653 118.687,323.653 117.5,322.5C 116.702,322.043 116.369,321.376 116.5,320.5 Z"/></g>
<g><path style="opacity:0.1" fill="#717171" d="M 268.5,320.5 C 273.317,320.894 276.651,323.227 278.5,327.5C 275.769,325.456 272.769,323.789 269.5,322.5C 268.702,322.043 268.369,321.376 268.5,320.5 Z"/></g>
<g><path style="opacity:0.314" fill="#8b8b8b" d="M 92.5,320.5 C 92.6309,321.376 92.2975,322.043 91.5,322.5C 87.9572,323.432 84.9572,325.099 82.5,327.5C 84.3493,323.227 87.6826,320.894 92.5,320.5 Z"/></g>
<g><path style="opacity:0.136" fill="#595959" d="M 121.5,322.5 C 124.423,324.151 126.757,326.484 128.5,329.5C 128.5,329.833 128.5,330.167 128.5,330.5C 126.351,328.954 124.184,327.288 122,325.5C 121.517,324.552 121.351,323.552 121.5,322.5 Z"/></g>
<g><path style="opacity:0.396" fill="#7f7f7f" d="M 239.5,322.5 C 239.649,323.552 239.483,324.552 239,325.5C 235.615,328.388 232.448,331.388 229.5,334.5C 229.771,332.688 230.438,331.022 231.5,329.5C 233.91,326.749 236.577,324.415 239.5,322.5 Z"/></g>
<g><path style="opacity:0.187" fill="#999999" d="M 128.5,329.5 C 131.083,330.985 132.416,333.318 132.5,336.5C 130.27,335.225 128.937,333.225 128.5,330.5C 128.5,330.167 128.5,329.833 128.5,329.5 Z"/></g>
<g><path style="opacity:0.531" fill="#656565" d="M 82.5,327.5 C 79.7865,331.908 77.4532,336.574 75.5,341.5C 75.0431,342.298 74.3764,342.631 73.5,342.5C 74.537,339.173 75.7037,335.839 77,332.5C 78.5885,330.41 80.4218,328.743 82.5,327.5 Z"/></g>
<g><path style="opacity:0.191" fill="#dadada" d="M 132.5,336.5 C 134.048,336.821 134.715,337.821 134.5,339.5C 132.952,339.179 132.285,338.179 132.5,336.5 Z"/></g>
<g><path style="opacity:0.557" fill="#545454" d="M 229.5,335.5 C 229.66,337.199 229.494,338.866 229,340.5C 228.583,341.756 227.75,342.423 226.5,342.5C 226.179,339.423 227.179,337.09 229.5,335.5 Z"/></g>
<g><path style="opacity:0.253" fill="#686868" d="M 278.5,327.5 C 280.371,327.859 281.871,328.859 283,330.5C 284.615,334.518 286.115,338.518 287.5,342.5C 286.624,342.631 285.957,342.298 285.5,341.5C 283.915,336.382 281.582,331.715 278.5,327.5 Z"/></g>
<g><path style="opacity:0.298" fill="#b7b7b7" d="M 134.5,342.5 C 135.833,346.833 135.833,351.167 134.5,355.5C 133.167,351.167 133.167,346.833 134.5,342.5 Z"/></g>
<g><path style="opacity:0.586" fill="#cdcdcd" d="M 287.5,346.5 C 288.833,348.167 288.833,349.833 287.5,351.5C 286.167,349.833 286.167,348.167 287.5,346.5 Z"/></g>
<g><path style="opacity:0.345" fill="#999999" d="M 226.5,347.5 C 227.625,348.652 227.625,349.652 226.5,350.5C 225.167,349.5 225.167,348.5 226.5,347.5 Z"/></g>
<g><path style="opacity:0.125" fill="#d1d1d1" d="M 73.5,356.5 C 75.1765,357.183 75.8432,358.517 75.5,360.5C 73.8235,359.817 73.1568,358.483 73.5,356.5 Z"/></g>
<g><path style="opacity:0.076" fill="#979797" d="M 226.5,356.5 C 228.379,357.895 229.379,359.895 229.5,362.5C 227.031,361.393 226.031,359.393 226.5,356.5 Z"/></g>
<g><path style="opacity:0.129" fill="#c7c7c7" d="M 134.5,357.5 C 134.843,359.483 134.176,360.817 132.5,361.5C 132.157,359.517 132.824,358.183 134.5,357.5 Z"/></g>
<g><path style="opacity:0.486" fill="#6e6e6e" d="M 75.5,360.5 C 77.4241,360.711 77.7574,361.377 76.5,362.5C 75.6618,362.158 75.3284,361.492 75.5,360.5 Z"/></g>
<g><path style="opacity:0.475" fill="#656565" d="M 287.5,356.5 C 287.545,359.077 286.545,361.077 284.5,362.5C 284.046,360.741 284.046,358.741 284.5,356.5C 285.5,356.5 286.5,356.5 287.5,356.5 Z"/></g>
<g><path style="opacity:0.271" fill="#9e9e9e" d="M 76.5,363.5 C 78.4241,363.711 78.7574,364.377 77.5,365.5C 76.6618,365.158 76.3284,364.492 76.5,363.5 Z"/></g>
<g><path style="opacity:0.165" fill="#828282" d="M 284.5,363.5 C 282.111,369.846 277.778,374.179 271.5,376.5C 276.027,372.395 280.36,368.061 284.5,363.5 Z"/></g>
<g><path style="opacity:0.193" fill="#a1a1a1" d="M 132.5,361.5 C 132.313,363.564 131.813,365.564 131,367.5C 130.329,368.252 129.496,368.586 128.5,368.5C 128.5,367.833 128.5,367.167 128.5,366.5C 129.132,364.257 130.466,362.591 132.5,361.5 Z"/></g>
<g><path style="opacity:0.2" fill="#d0d0d0" d="M 230.5,366.5 C 231.167,366.5 231.833,366.5 232.5,366.5C 232.5,367.167 232.5,367.833 232.5,368.5C 231.167,368.5 230.5,367.833 230.5,366.5 Z"/></g>
<g><path style="opacity:0.148" fill="#9b9b9b" d="M 79.5,367.5 C 83.4818,369.817 86.8151,372.817 89.5,376.5C 87.6883,376.229 86.0217,375.562 84.5,374.5C 82.0392,372.71 80.3726,370.377 79.5,367.5 Z"/></g>
<g><path style="opacity:0.092" fill="#626262" d="M 128.5,366.5 C 128.5,367.167 128.5,367.833 128.5,368.5C 125.733,373.239 121.733,376.572 116.5,378.5C 116.281,377.325 116.614,376.325 117.5,375.5C 121.828,373.188 125.495,370.188 128.5,366.5 Z"/></g>
<g><path style="opacity:0.118" fill="#757575" d="M 232.5,366.5 C 235.854,369.854 239.188,373.188 242.5,376.5C 240.688,376.229 239.022,375.562 237.5,374.5C 235.117,373.115 233.45,371.115 232.5,368.5C 232.5,367.833 232.5,367.167 232.5,366.5 Z"/></g>
<g><path style="opacity:0.21" fill="#828282" d="M 90.5,376.5 C 91.8333,376.5 92.5,377.167 92.5,378.5C 91.1667,378.5 90.5,377.833 90.5,376.5 Z"/></g>
<g><path style="opacity:0.094" fill="#717171" d="M 270.5,376.5 C 270.5,377.833 269.833,378.5 268.5,378.5C 268.5,377.167 269.167,376.5 270.5,376.5 Z"/></g>
<g><path style="opacity:0.106" fill="#adadad" d="M 95.5,379.5 C 94.5084,379.672 93.8417,379.338 93.5,378.5C 94.6226,377.243 95.2893,377.576 95.5,379.5 Z"/></g>
<g><path style="opacity:0.161" fill="#747474" d="M 115.5,378.5 C 114.432,379.434 113.099,379.768 111.5,379.5C 111.62,378.414 112.287,377.747 113.5,377.5C 114.416,377.543 115.083,377.876 115.5,378.5 Z"/></g>
<g><path style="opacity:0.075" fill="#888888" d="M 243.5,376.5 C 246.105,376.621 248.105,377.621 249.5,379.5C 246.607,379.969 244.607,378.969 243.5,376.5 Z"/></g>
<g><path style="opacity:0.102" fill="#9e9e9e" d="M 267.5,378.5 C 267.158,379.338 266.492,379.672 265.5,379.5C 265.711,377.576 266.377,377.243 267.5,378.5 Z"/></g>
</svg>
